<svg width="28" height="21" viewBox="0 0 28 21" fill="none" xmlns="http://www.w3.org/2000/svg">
<path d="M19.0909 9C21.2036 9 22.8964 6.99 22.8964 4.5C22.8964 2.01 21.2036 0 19.0909 0C16.9782 0 15.2727 2.01 15.2727 4.5C15.2727 6.99 16.9782 9 19.0909 9ZM8.90909 9C11.0218 9 12.7145 6.99 12.7145 4.5C12.7145 2.01 11.0218 0 8.90909 0C6.79636 0 5.09091 2.01 5.09091 4.5C5.09091 6.99 6.79636 9 8.90909 9ZM8.90909 12C5.94364 12 0 13.755 0 17.25V21H17.8182V17.25C17.8182 13.755 11.8745 12 8.90909 12ZM19.0909 12C18.7218 12 18.3018 12.03 17.8564 12.075C19.3327 13.335 20.3636 15.03 20.3636 17.25V21H28V17.25C28 13.755 22.0564 12 19.0909 12Z" fill="white"/>
</svg>
