<svg width="31" height="26" viewBox="0 0 31 26" fill="none" xmlns="http://www.w3.org/2000/svg">
<g clip-path="url(#clip0_4_357)">
<path d="M27.0687 24.2014C25.6925 18.3849 25.752 18.6326 25.7452 18.6086C25.5647 17.8734 25.0574 17.263 24.2348 16.8806C23.8501 16.7013 23.6282 16.6733 23.4343 16.62L20.0532 15.6316L18.9264 14.981V14.2432C20.5742 13.4193 21.6232 12.0003 21.815 10.4648C23.192 10.5185 24.1517 9.41076 23.5743 8.44094V5.33618C23.5743 3.09094 22.1236 2.30983 21.6804 2.12367C19.5116 -0.0555062 15.4619 -0.614404 12.3918 0.711543L12.3859 0.714031C12.3333 0.740082 11.7006 0.986472 10.9214 1.53481C10.7324 1.67242 10.7117 1.91292 10.8752 2.07202C11.0389 2.23132 11.3247 2.24833 11.5134 2.11097C14.5201 -0.0140181 18.9828 0.532032 21.0459 2.67322C21.0967 2.72588 21.1586 2.76473 21.234 2.78849C21.2927 2.8083 22.6694 3.296 22.6694 5.33618V7.73986C22.4184 7.65038 22.1432 7.60453 21.8498 7.61143V6.36572C21.8498 6.04971 21.567 5.78854 21.192 5.75807C20.4316 5.69627 20.0055 5.27926 19.7819 4.94039C19.5021 4.51622 18.8341 4.41461 18.3961 4.72965C16.3786 6.18123 14.0555 6.25497 12.4621 6.06154C11.2584 5.91529 10.1389 6.60536 9.94408 7.61194C9.65111 7.60128 9.36164 7.64495 9.09551 7.73981C9.09726 6.42859 8.91754 5.00194 10.1916 3.36714C10.3283 3.19103 10.2695 2.95505 10.0603 2.83998C9.85111 2.72486 9.57068 2.77427 9.43397 2.95048C7.70005 5.18678 8.32043 7.19061 8.19048 8.44089C7.61347 9.41035 8.5719 10.5185 9.94975 10.4647C10.1747 12.2731 11.4982 13.3135 11.5296 13.3588C11.7646 13.5484 12.1865 13.9444 13.0089 14.3259V14.9809L11.8822 15.6313C7.47266 16.9206 7.9202 16.7642 7.56195 16.9484C6.88485 17.2995 6.41553 17.8364 6.21993 18.4974C6.18138 18.6281 6.24539 18.3812 4.86664 24.2013C4.83889 24.3188 4.82429 24.548 4.8492 24.7424C4.9514 25.5416 5.62482 25.9999 6.69679 25.9999H19.1301C19.3801 25.9999 19.5826 25.8295 19.5826 25.6191C19.5826 25.4087 19.3801 25.2382 19.1301 25.2382H9.8788V21.7487C9.8788 21.5383 9.6762 21.3678 9.42631 21.3678C9.17642 21.3678 8.97382 21.5383 8.97382 21.7487V25.2383H6.69667C5.98724 25.2383 5.65408 24.9821 5.75677 24.3391C6.99495 19.2466 6.99761 18.8356 7.20014 18.4184C7.23543 18.3768 7.43055 17.7891 8.38716 17.4473C8.48604 17.4132 8.42439 17.4361 8.76453 17.3488C8.78553 17.3437 8.68182 17.3734 10.3068 16.8985L11.3907 18.5826C11.5097 18.7675 11.7842 18.8364 12.0041 18.7361C12.2238 18.6359 12.3055 18.4047 12.1864 18.2198L11.1731 16.6452L11.8661 16.4426C12.2001 16.9617 15.1579 21.5572 15.4794 22.0567C15.6778 22.366 16.183 22.3815 16.4158 22.1113C16.4579 22.0624 16.217 22.4264 20.0635 16.4409L20.7563 16.6434L17.0933 22.3466C16.6104 23.0984 15.3266 23.0985 14.8431 22.3474L13.1923 19.7824C13.0732 19.5974 12.7987 19.5285 12.5789 19.6289C12.3591 19.7291 12.2775 19.9602 12.3966 20.1452L14.0475 22.7103C14.8732 23.9931 17.0653 23.9919 17.8894 22.7089L21.6224 16.8967C23.2438 17.3705 23.1487 17.3434 23.1697 17.3485C23.4887 17.4303 23.4532 17.4146 23.5471 17.4469C23.8931 17.571 24.0997 17.7141 24.0936 17.7104C24.4484 17.9512 24.6931 18.2295 24.8238 18.6393C24.8452 18.7043 26.1884 24.3101 26.1939 24.4993C26.2074 24.9774 25.9621 25.2383 25.2388 25.2383H22.9615V21.7487C22.9615 21.5383 22.759 21.3678 22.509 21.3678C22.2591 21.3678 22.0565 21.5383 22.0565 21.7487V25.2383H21.2415C20.9916 25.2383 20.789 25.4088 20.789 25.6191C20.789 25.8295 20.9916 26 21.2415 26H25.2387C26.3106 26 26.984 25.5416 27.0861 24.7429C27.1107 24.5523 27.0963 24.3182 27.0687 24.2014ZM21.8498 8.3734C22.3716 8.3502 22.8386 8.64605 22.8386 9.03848C22.8386 9.43483 22.3665 9.72662 21.8498 9.70362V8.3734ZM9.91512 9.70362C9.39337 9.72687 8.92628 9.43097 8.92628 9.03854C8.92628 8.64219 9.39838 8.3504 9.91512 8.3734V9.70362ZM12.3327 6.81544C14.1114 7.03151 16.709 6.94554 18.984 5.30866L18.9907 5.31013C19.4277 5.97257 20.1173 6.39075 20.9448 6.49922V7.84792L20.4285 8.10442C20.2159 7.84655 19.8621 7.67704 19.4619 7.67704H17.3912C16.9028 7.67704 16.4833 7.92897 16.3056 8.28642H15.4593C15.2816 7.92897 14.862 7.67704 14.3736 7.67704H12.303C11.9027 7.67704 11.5488 7.84655 11.3363 8.10442L10.8224 7.84904C10.8669 7.19797 11.5661 6.7221 12.3327 6.81544ZM19.7333 8.66727V9.42574C19.7333 9.75612 19.414 10.0249 19.0215 10.0249H17.8315C17.439 10.0249 17.1197 9.75607 17.1197 9.42574V8.66727C17.1197 8.54342 17.2441 8.43876 17.3912 8.43876H19.4619C19.609 8.43876 19.7333 8.54342 19.7333 8.66727ZM14.6451 8.66727V9.42574C14.6451 9.75612 14.3258 10.0249 13.9333 10.0249H12.7433C12.3508 10.0249 12.0315 9.75607 12.0315 9.42574V8.66727C12.0315 8.54342 12.1558 8.43876 12.303 8.43876H14.3736C14.5208 8.43876 14.6451 8.54342 14.6451 8.66727ZM12.0404 12.6977C10.5759 11.261 10.8582 9.86596 10.8201 8.73243L11.1266 8.88472V9.42574C11.1266 10.1761 11.8519 10.7866 12.7433 10.7866H13.9334C14.8248 10.7866 15.5501 10.1761 15.5501 9.42574V9.04808H16.215V9.42574C16.215 10.1761 16.9402 10.7866 17.8317 10.7866H19.0217C19.9132 10.7866 20.6385 10.1761 20.6385 9.42574V8.88472L20.945 8.73243V9.9233C20.945 12.1885 18.815 14.1567 15.8826 14.1838C15.8765 14.1838 15.8156 14.1834 15.8216 14.1835C15.0394 14.1768 14.4383 14.0081 14.4992 14.0225C13.6113 13.8152 12.7645 13.3873 12.0404 12.6977ZM15.9677 16.9585L13.9139 15.0349V14.6655C14.8584 14.9416 15.8379 15.0051 16.7499 14.8932C17.0044 14.8621 17.2783 14.811 17.4385 14.7729C17.4766 14.7625 17.695 14.7186 18.0215 14.6128V15.035L15.9677 16.9585ZM16.4773 18.3158L16.2774 18.6623H15.6581L15.4581 18.3158L15.9677 18.0007L16.4773 18.3158ZM14.7752 19.3637L14.4871 18.916L14.7166 18.7742L14.8881 19.0715L14.7752 19.3637ZM14.0551 18.2381L12.6804 16.0976L13.3914 15.6849L15.2974 17.4701C15.1873 17.5381 14.1632 18.1712 14.0551 18.2381ZM15.9676 21.2162L15.3699 20.2876L15.7036 19.424H16.2321L16.5651 20.2861C16.3757 20.5808 16.1998 20.8546 15.9676 21.2162ZM17.1592 19.3609L17.0473 19.0714L17.2188 18.7741L17.4459 18.9145L17.1592 19.3609ZM17.8804 18.2381C17.7628 18.1654 16.7798 17.5577 16.6382 17.4701L18.5442 15.6849L19.2552 16.0976C18.7986 16.8084 18.1767 17.7766 17.8804 18.2381Z" fill="white" stroke="white" stroke-width="0.4"/>
</g>
<defs>
<clipPath id="clip0_4_357">
<rect width="30.8898" height="26" fill="white" transform="translate(0.0842285)"/>
</clipPath>
</defs>
</svg>
