<svg width="31" height="31" viewBox="0 0 31 31" fill="none" xmlns="http://www.w3.org/2000/svg">
<path d="M20.6666 20.1758C21.4656 20.1758 22.1133 19.5281 22.1133 18.7292C22.1133 17.9302 21.4656 17.2825 20.6666 17.2825C19.8676 17.2825 19.2199 17.9302 19.2199 18.7292C19.2199 19.5281 19.8676 20.1758 20.6666 20.1758Z" fill="#FEFEFE"/>
<path fill-rule="evenodd" clip-rule="evenodd" d="M20.6666 21.3125C19.7237 21.3125 17.8378 21.7775 17.7733 22.7075C18.4191 23.6246 19.4783 24.2188 20.6666 24.2188C21.8549 24.2188 22.9141 23.6246 23.5599 22.7075C23.4953 21.7775 21.6095 21.3125 20.6666 21.3125Z" fill="#FEFEFE"/>
<path fill-rule="evenodd" clip-rule="evenodd" d="M21.9583 13.0329V6.80709L12.2708 2.58334L2.58325 6.80709V13.1492C2.58325 19.0133 6.71658 24.5029 12.2708 25.8333C12.9812 25.6654 13.6658 25.42 14.3374 25.1229C15.7324 27.1121 18.0445 28.4167 20.6666 28.4167C24.942 28.4167 28.4166 24.9421 28.4166 20.6667C28.4166 16.8304 25.6266 13.6529 21.9583 13.0329ZM12.9166 20.6667C12.9166 21.39 13.0199 22.1004 13.2137 22.7592C12.9037 22.9013 12.5937 23.0433 12.2708 23.1467C8.17617 21.855 5.16659 17.67 5.16659 13.1492V8.49918L12.2708 5.39918L19.3749 8.49918V13.0329C15.7066 13.6529 12.9166 16.8304 12.9166 20.6667ZM20.6666 25.8333C17.812 25.8333 15.4999 23.5213 15.4999 20.6667C15.4999 17.8121 17.812 15.5 20.6666 15.5C23.5212 15.5 25.8333 17.8121 25.8333 20.6667C25.8333 23.5213 23.5212 25.8333 20.6666 25.8333Z" fill="#FEFEFE"/>
</svg>
