<svg width="191" height="190" viewBox="0 0 191 190" fill="none" xmlns="http://www.w3.org/2000/svg">
<g clip-path="url(#clip0_13_155)">
<path d="M61.3344 46.3825C69.8934 46.3825 76.8318 39.4803 76.8318 30.9662C76.8318 22.452 69.8934 15.5499 61.3344 15.5499C52.7754 15.5499 45.8369 22.452 45.8369 30.9662C45.8369 39.4803 52.7754 46.3825 61.3344 46.3825Z" fill="#020202"/>
<path d="M92.8446 180.271L87.1814 138.888C87.0975 138.275 86.9475 137.673 86.7334 137.093L78.645 115.156V96.9671C72.9975 99.6791 66.2483 97.3475 63.4844 91.7704L52.3181 69.1675L68.1068 87.9184C71.4314 91.8665 77.7669 90.8864 79.7511 86.1561L90.6683 60.1266C92.134 56.632 90.4743 52.6175 86.9617 51.1592C83.4491 49.7008 79.4127 51.3525 77.947 54.8463L71.3945 70.4693L62.8842 60.363L67.6424 63.8357L72.7979 51.5941H49.5072C44.5169 51.5941 40.3448 55.0686 39.2954 59.718V58.5825C39.2954 52.1715 34.0709 46.974 27.6262 46.974C21.1818 46.974 15.9566 52.1711 15.9566 58.5825V74.1116H12.6675C10.4273 74.1116 8.61133 75.9181 8.61133 78.1465V91.0586C8.61133 93.287 10.4273 95.0935 12.6675 95.0935H15.9566C15.9566 103.06 22.1477 108.449 29.0516 108.449H39.0384V115.438H39.0474L37.9293 142.009L22.9553 178.164C21.1427 182.54 23.2396 187.549 27.6389 189.352C32.039 191.155 37.0743 189.068 38.8862 184.693L54.4392 147.141C54.822 146.217 55.0394 145.234 55.0812 144.235C56.3656 113.707 56.2835 115.78 56.2835 115.439H60.3956L70.2343 142.122L75.7711 182.584C76.4135 187.279 80.7613 190.558 85.4691 189.92C90.1848 189.28 93.4863 184.961 92.8446 180.271Z" fill="black"/>
<path d="M150.798 30.8326C159.357 30.8326 166.296 23.9305 166.296 15.4163C166.296 6.90211 159.357 0 150.798 0C142.239 0 135.301 6.90211 135.301 15.4163C135.301 23.9305 142.239 30.8326 150.798 30.8326Z" fill="black"/>
<path d="M176.51 160.874L171.238 120.684C171.16 120.09 171.02 119.505 170.821 118.941L163.291 97.6377V90.5699C160.406 89.6182 143.831 84.1497 140.497 83.0491C136.559 81.7496 134.157 77.7735 134.555 73.6705L136.902 49.334L140.114 72.8532C140.46 75.386 142.173 77.4888 144.523 78.264L165.559 85.2049C168.935 86.3189 172.544 84.3825 173.618 80.8774C174.692 77.3731 172.825 73.6291 169.448 72.5148L152.254 66.8417L149.608 47.4661L155.094 61.6659L163.291 64.3705V46.0235C163.291 40.4379 158.927 35.9101 153.544 35.9101H136.164C131.518 35.9101 127.634 39.2844 126.657 43.7996V42.6968C126.657 36.4709 121.793 31.4234 115.793 31.4234C109.792 31.4234 104.929 36.4705 104.929 42.6968V61.2738H102.075C99.9895 61.2738 98.2988 63.0281 98.2988 65.1922V76.1085C98.2988 78.2726 99.9895 80.027 102.075 80.027H105.024C105.762 86.2803 110.894 91.1238 117.12 91.1238H126.418V97.9112H126.426L125.385 123.715L111.444 158.826C109.757 163.076 111.709 167.941 115.805 169.692C119.904 171.444 124.59 169.413 126.276 165.167L140.755 128.699C141.111 127.802 141.314 126.847 141.353 125.877C142.549 96.2265 142.472 98.245 142.472 97.9116H146.3L155.46 123.825L160.615 163.119C161.213 167.678 165.261 170.863 169.644 170.243C174.034 169.623 177.108 165.428 176.51 160.874Z" fill="black"/>
<rect y="186" width="230" height="57" fill="#D9D9D9"/>
</g>
<defs>
<clipPath id="clip0_13_155">
<rect width="191" height="190" fill="white"/>
</clipPath>
</defs>
</svg>
