<svg width="183" height="162" viewBox="0 0 183 162" fill="none" xmlns="http://www.w3.org/2000/svg">
<path d="M124.773 69.4286C138.581 69.4286 149.644 53.9229 149.644 34.7143C149.644 15.5057 138.581 0 124.773 0C110.965 0 99.8182 15.5057 99.8182 34.7143C99.8182 53.9229 110.965 69.4286 124.773 69.4286ZM58.2273 69.4286C72.0355 69.4286 83.0986 53.9229 83.0986 34.7143C83.0986 15.5057 72.0355 0 58.2273 0C44.4191 0 33.2727 15.5057 33.2727 34.7143C33.2727 53.9229 44.4191 69.4286 58.2273 69.4286ZM58.2273 92.5714C38.8459 92.5714 0 106.11 0 133.071V162H116.455V133.071C116.455 106.11 77.6086 92.5714 58.2273 92.5714ZM124.773 92.5714C122.36 92.5714 119.615 92.8029 116.704 93.15C126.353 102.87 133.091 115.946 133.091 133.071V162H183V133.071C183 106.11 144.154 92.5714 124.773 92.5714Z" fill="black"/>
</svg>
