<svg width="172" height="154" viewBox="0 0 172 154" fill="none" xmlns="http://www.w3.org/2000/svg">
<path d="M86 77C101.767 77 114.667 65.45 114.667 51.3333C114.667 37.2167 101.767 25.6667 86 25.6667C70.2333 25.6667 57.3333 37.2167 57.3333 51.3333C57.3333 65.45 70.2333 77 86 77ZM86 42.7778C91.2556 42.7778 95.5556 46.6278 95.5556 51.3333C95.5556 56.0389 91.2556 59.8889 86 59.8889C80.7444 59.8889 76.4444 56.0389 76.4444 51.3333C76.4444 46.6278 80.7444 42.7778 86 42.7778ZM143.333 116.184C143.333 94.7956 105.398 85.5556 86 85.5556C66.6022 85.5556 28.6667 94.7956 28.6667 116.184V128.333H143.333V116.184ZM52.3644 111.222C59.4356 106.859 73.6733 102.667 86 102.667C98.3267 102.667 112.564 106.859 119.636 111.222H52.3644ZM152.889 0H19.1111C8.50444 0 0 7.7 0 17.1111V136.889C0 146.3 8.50444 154 19.1111 154H152.889C163.4 154 172 146.3 172 136.889V17.1111C172 7.7 163.4 0 152.889 0ZM152.889 136.889H19.1111V17.1111H152.889V136.889Z" fill="#030303"/>
</svg>
