<svg width="132" height="170" viewBox="0 0 132 170" fill="none" xmlns="http://www.w3.org/2000/svg">
<path d="M131.822 158.24C123.662 120.209 124.015 121.828 123.975 121.672C122.905 116.865 119.896 112.873 115.019 110.373C112.738 109.201 111.422 109.018 110.272 108.669L90.2251 102.206L83.5439 97.953V93.1286C93.3141 87.7414 99.5342 78.4635 100.671 68.4235C108.836 68.7748 114.526 61.5319 111.103 55.1908V34.8904C111.103 20.21 102.501 15.1027 99.873 13.8855C87.0138 -0.362926 63.0016 -4.01726 44.7984 4.6524L44.7634 4.66867C44.4511 4.839 40.6996 6.45001 36.08 10.0353C34.9592 10.9351 34.8365 12.5076 35.8056 13.5478C36.7765 14.5894 38.471 14.7006 39.59 13.8025C57.4175 -0.0916567 83.8784 3.47867 96.1111 17.4787C96.4123 17.8231 96.779 18.0771 97.2265 18.2325C97.5742 18.3619 105.737 21.5508 105.737 34.8904V50.6068C104.249 50.0217 102.617 49.7219 100.878 49.7671V41.622C100.878 39.5558 99.2008 37.8482 96.9772 37.6489C92.4684 37.2449 89.9422 34.5182 88.6164 32.3026C86.9573 29.5291 82.9966 28.8647 80.3995 30.9247C68.4369 40.4158 54.663 40.8979 45.2148 39.6332C38.0779 38.6769 31.4399 43.1889 30.2849 49.7704C28.5477 49.7007 26.8314 49.9862 25.2535 50.6064C25.2638 42.0331 24.1982 32.705 31.7526 22.0159C32.5632 20.8645 32.2144 19.3215 30.9738 18.5691C29.7336 17.8164 28.0709 18.1395 27.2603 19.2916C16.9793 33.9136 20.6578 47.0155 19.8872 55.1905C16.466 61.5293 22.1488 68.7748 30.3185 68.4229C31.6521 80.2475 39.4998 87.0498 39.6862 87.346C41.0792 88.5854 43.5811 91.1749 48.4572 93.6695V97.952L41.7767 102.205C15.631 110.635 18.2846 109.612 16.1605 110.817C12.1457 113.112 9.36299 116.622 8.20325 120.945C7.97466 121.799 8.35421 120.185 0.179138 158.239C0.014585 159.008 -0.0719848 160.506 0.0757553 161.777C0.68174 167.003 4.67466 170 11.0307 170H84.7519C86.234 170 87.4349 168.885 87.4349 167.509C87.4349 166.134 86.234 165.019 84.7519 165.019H29.8978V142.203C29.8978 140.827 28.6966 139.713 27.2149 139.713C25.7332 139.713 24.5319 140.827 24.5319 142.203V165.02H11.03C6.82351 165.02 4.84815 163.345 5.457 159.14C12.7986 125.843 12.8143 123.156 14.0152 120.428C14.2245 120.156 15.3813 116.314 21.0534 114.079C21.6397 113.856 21.2741 114.005 23.291 113.435C23.4155 113.401 22.8005 113.595 32.4358 110.49L38.8624 121.502C39.5682 122.711 41.1958 123.161 42.4993 122.505C43.8022 121.85 44.2862 120.339 43.5804 119.129L37.5721 108.834L41.6809 107.509C43.6616 110.903 61.199 140.951 63.1053 144.217C64.2819 146.24 67.2775 146.341 68.6576 144.574C68.9076 144.254 67.4792 146.634 90.2859 107.498L94.394 108.822L72.6748 146.112C69.8116 151.028 62.1996 151.028 59.3328 146.118L49.5444 129.346C48.8382 128.137 47.2106 127.687 45.9074 128.343C44.6046 128.998 44.1206 130.509 44.8263 131.719L54.6151 148.49C59.5113 156.878 72.5088 156.87 77.395 148.481L99.5292 110.478C109.143 113.576 108.579 113.399 108.704 113.433C110.595 113.968 110.385 113.865 110.942 114.076C112.993 114.887 114.218 115.823 114.182 115.799C116.286 117.373 117.736 119.193 118.511 121.872C118.638 122.297 126.603 158.951 126.635 160.188C126.715 163.314 125.261 165.02 120.972 165.02H107.469V142.203C107.469 140.827 106.268 139.713 104.786 139.713C103.304 139.713 102.103 140.827 102.103 142.203V165.02H97.2709C95.7888 165.02 94.5879 166.134 94.5879 167.51C94.5879 168.885 95.7888 170 97.2709 170H120.971C127.327 170 131.32 167.003 131.925 161.78C132.071 160.534 131.986 159.004 131.822 158.24ZM100.877 54.7492C103.971 54.5975 106.741 56.5319 106.741 59.0978C106.741 61.6893 103.941 63.5971 100.877 63.4467V54.7492ZM30.1131 63.4467C27.0195 63.5988 24.25 61.6641 24.25 59.0981C24.25 56.5066 27.0492 54.5988 30.1131 54.7492V63.4467ZM44.4479 44.5625C54.9939 45.9753 70.3965 45.4131 83.8852 34.7105L83.9249 34.7201C86.5163 39.0514 90.605 41.7857 95.5116 42.4949V51.3133L92.4502 52.9904C91.1896 51.3044 89.0919 50.196 86.7187 50.196H74.4413C71.5455 50.196 69.0579 51.8433 68.0044 54.1804H62.9862C61.9327 51.8433 59.4447 50.196 56.549 50.196H44.2715C41.898 50.196 39.8 51.3044 38.5401 52.9904L35.4926 51.3206C35.7566 47.0637 39.9026 43.9522 44.4479 44.5625ZM88.3285 56.6707V61.6299C88.3285 63.7901 86.435 65.5472 84.1077 65.5472H77.0516C74.7246 65.5472 72.8311 63.7897 72.8311 61.6299V56.6707C72.8311 55.8608 73.5688 55.1765 74.4413 55.1765H86.7187C87.5912 55.1765 88.3285 55.8608 88.3285 56.6707ZM58.1587 56.6707V61.6299C58.1587 63.7901 56.2657 65.5472 53.9383 65.5472H46.8822C44.5548 65.5472 42.6618 63.7897 42.6618 61.6299V56.6707C42.6618 55.8608 43.399 55.1765 44.2715 55.1765H56.549C57.4215 55.1765 58.1587 55.8608 58.1587 56.6707ZM42.7143 83.0233C34.0313 73.6294 35.7051 64.5082 35.479 57.0966L37.2966 58.0924V61.6299C37.2966 66.5359 41.5968 70.5276 46.8825 70.5276H53.9387C59.2244 70.5276 63.5246 66.5363 63.5246 61.6299V59.1605H67.4671V61.6299C67.4671 66.5359 71.7673 70.5276 77.053 70.5276H84.1091C89.3949 70.5276 93.6954 66.5363 93.6954 61.6299V58.0924L95.513 57.0966V64.8831C95.513 79.6943 82.8832 92.5631 65.4964 92.7405C65.4602 92.7401 65.0989 92.7378 65.1347 92.7381C60.4968 92.6946 56.9328 91.5913 57.2934 91.6853C52.0288 90.3299 47.0077 87.5322 42.7143 83.0233ZM66.0008 110.883L53.8231 98.3053V95.8901C59.4233 97.6954 65.2309 98.1104 70.6386 97.3786C72.1475 97.1751 73.7716 96.8414 74.7217 96.5924C74.9474 96.5243 76.2428 96.2367 78.1784 95.5455V98.3056L66.0008 110.883ZM69.0225 119.757L67.837 122.023H64.1649L62.9791 119.757L66.0008 117.697L69.0225 119.757ZM58.9303 126.609L57.2219 123.682L58.5826 122.754L59.5996 124.698L58.9303 126.609ZM54.6605 119.249L46.5091 105.253L50.7249 102.555L62.0264 114.228C61.3736 114.672 55.3016 118.812 54.6605 119.249ZM66 138.721L62.4564 132.65L64.4346 127.003H67.5683L69.5429 132.64C68.4197 134.567 67.3769 136.357 66 138.721ZM73.0655 126.591L72.4022 124.697L73.4192 122.754L74.7654 123.671L73.0655 126.591ZM77.3417 119.249C76.6445 118.774 70.8161 114.801 69.9762 114.228L81.2777 102.555L85.4935 105.253C82.7859 109.901 79.0985 116.232 77.3417 119.249Z" fill="black"/>
</svg>
